# xmcd
#
# Track frame offsets:
#	150
#	19617
#	37507
#	53382
#	65642
#	87605
#	109385
#	131832
#	156002
#	171090
#	190377
#	208515
#	227505
#	244687
#	257345
#	281405
#	300825
#
# Disc length: 4333 seconds
#
# Revision: 0
# Processed by: cddbd v1.5.2PL0 Copyright (c) Steve Scherf et al.
# Submitted via: EasyCDDAExtractor 12.0.4.1
#
DISCID=d510eb11
DTITLE=Various Artist - Soul Decade 2
DYEAR=1900
DGENRE=
TTITLE0=All-4-One - I Swear
TTITLE1=Boyz II Men - I'll Make You Love To You
TTITLE2=Vanessa Williams - The Sweetest Days
TTITLE3=4 P.M. - Sukiyaki
TTITLE4=Surface - Shower Me With Your Love
TTITLE5=Atlantic Starr - Masterpiece
TTITLE6=Tevin Campbell - Tell Me What You Want Me To Do
TTITLE7=Lisa Fischer - How Can I Ease The Pain
TTITLE8=Champaign - How 'Bout Us
TTITLE9=Odyssey - When You Love Somebody
TTITLE10=Jeffrey Osborne - On The Wings Of Love
TTITLE11=Dionne Warwick - That's What Friends For
TTITLE12=Pointer Sisters - Slow Hand
TTITLE13=Steve Wonder - A Place In The Sun
TTITLE14=Brenda Russell - Piano In The Dark
TTITLE15=Anita Baker - Sweet Love
TTITLE16=Luther Vandross - Here And Now
EXTD=
EXTT0=
EXTT1=
EXTT2=
EXTT3=
EXTT4=
EXTT5=
EXTT6=
EXTT7=
EXTT8=
EXTT9=
EXTT10=
EXTT11=
EXTT12=
EXTT13=
EXTT14=
EXTT15=
EXTT16=
PLAYORDER=
